# xmcd
#
# Track frame offsets:
#	150
#	10065
#	20987
#	32542
#	46420
#	56212
#	67512
#	79152
#	89962
#	100865
#	111135
#	120512
#	134370
#	148020
#	159267
#	171610
#	184965
#	197122
#	206815
#	217502
#
# Disc length: 3056 seconds
#
# Revision: 3
# Processed by: cddbd v1.5.2PL0 Copyright (c) Steve Scherf et al.
# Submitted via: audiograbber 1.83.01
#
DISCID=1f0bee14
DTITLE=Pat Boone - The Very Best Of Pat Boone
DYEAR=1900
DGENRE=Pop
TTITLE0=Love letters in the sand
TTITLE1=I love you more and more everyday
TTITLE2=I almost lost my mind
TTITLE3=Friendly persuasion
TTITLE4=Mr. Blue
TTITLE5=April love
TTITLE6=Speedy Gonzales
TTITLE7=Ain't that a shame
TTITLE8=Tutti frutti
TTITLE9=Don't forbid me
TTITLE10=A wonderful time up there
TTITLE11=I believe in music
TTITLE12=I'll be home
TTITLE13=Moody river
TTITLE14=She fights that lovin' feelin'
TTITLE15=Jambalaya
TTITLE16=You lay so easy on my mind
TTITLE17=Bernadine
TTITLE18=Where there's a heartache
TTITLE19=Poetry in motion
EXTD=1994 Javelin Promotions LTD.
EXTT0=
EXTT1=
EXTT2=
EXTT3=
EXTT4=
EXTT5=
EXTT6=
EXTT7=
EXTT8=
EXTT9=
EXTT10=
EXTT11=
EXTT12=
EXTT13=
EXTT14=
EXTT15=
EXTT16=
EXTT17=
EXTT18=
EXTT19=
PLAYORDER=
